<svg id="vuesax_outline_clipboard-tick" data-name="vuesax/outline/clipboard-tick" xmlns="http://www.w3.org/2000/svg" width="24" height="24" viewBox="0 0 24 24">
  <g id="vuesax_outline_clipboard-tick-2" data-name="vuesax/outline/clipboard-tick">
    <g id="clipboard-tick">
      <path id="Vector" d="M1.717,5.277l-1.5-1.5a.75.75,0,1,1,1.06-1.06l.97.97L5.718.218a.75.75,0,0,1,1.06,1.06l-4,4a.725.725,0,0,1-.53.22A.742.742,0,0,1,1.717,5.277Z" transform="translate(8.563 11.453)" fill="#ed771c"/>
      <path id="Vector-2" data-name="Vector" d="M6.75,19.481C1.13,19.481,0,16.9,0,12.731v-6C0,2.171,1.65.221,5.71.011a.75.75,0,0,1,.79.71.742.742,0,0,1-.71.78c-2.84.16-4.29,1.01-4.29,5.23v6c0,3.7.73,5.25,5.25,5.25h6c4.52,0,5.25-1.55,5.25-5.25v-6c0-4.22-1.45-5.07-4.29-5.23A.751.751,0,1,1,13.79,0c4.06.22,5.71,2.17,5.71,6.72v6c0,4.18-1.13,6.76-6.75,6.76Z" transform="translate(2.25 3.269)" fill="#333"/>
      <path id="Vector-3" data-name="Vector" d="M24,0V24H0V0Z" fill="none" opacity="0"/>
      <path id="Vector-4" data-name="Vector" d="M6.75,5.5h-4C1.789,5.5,0,5.5,0,2.75S1.789,0,2.75,0h4C7.711,0,9.5,0,9.5,2.75,9.5,3.711,9.5,5.5,6.75,5.5Zm-4-4c-.985,0-1.25,0-1.25,1.25S1.765,4,2.75,4h4C8,4,8,3.735,8,2.75,8,1.5,7.735,1.5,6.75,1.5Z" transform="translate(7.25 1.25)" fill="#ed771c"/>
    </g>
  </g>
</svg>
