<svg xmlns="http://www.w3.org/2000/svg" width="375" height="306.371" viewBox="0 0 375 306.371">
  <g id="Group_501" data-name="Group 501" transform="translate(-28.737 -281.865)" opacity="0.46">
    <circle id="Ellipse_24" data-name="Ellipse 24" cx="8.12" cy="8.12" r="8.12" transform="translate(348.85 496.876)" fill="#36f19a"/>
    <circle id="Ellipse_25" data-name="Ellipse 25" cx="5.8" cy="5.8" r="5.8" transform="translate(337.249 299.384)" fill="#ed771c"/>
    <circle id="Ellipse_26" data-name="Ellipse 26" cx="5.8" cy="5.8" r="5.8" transform="translate(69.534 437.429)" fill="#36f19a" opacity="0.5"/>
    <circle id="Ellipse_27" data-name="Ellipse 27" cx="5.8" cy="5.8" r="5.8" transform="translate(290.053 431.629)" fill="#ed771c" opacity="0.3"/>
    <circle id="Ellipse_28" data-name="Ellipse 28" cx="5.8" cy="5.8" r="5.8" transform="translate(168.11 485.275)" fill="#ed771c" opacity="0.2"/>
    <circle id="Ellipse_29" data-name="Ellipse 29" cx="5.8" cy="5.8" r="5.8" transform="translate(317.22 548.674)" fill="#333" opacity="0.09"/>
    <circle id="Ellipse_30" data-name="Ellipse 30" cx="5.8" cy="5.8" r="5.8" transform="translate(98.41 281.865)" fill="#333" opacity="0.3"/>
    <path id="Path_1920" data-name="Path 1920" d="M755.672,386.739a30.63,30.63,0,0,1-14-24.067c-.068-1.366-.274-2.94.86-3.942a2.538,2.538,0,0,1,3.153-.252,3.326,3.326,0,0,1-2.824,5.765c-3.622-.385-5.5-3.961-7.021-6.83-3.472-6.538-7.674-13.043-14.031-17.114-5.881-3.767-13.741-5.024-20.073-1.635-1.108.593-.113,2.267.989,1.677,6.28-3.361,14.118-1.453,19.569,2.651a35.732,35.732,0,0,1,8.139,9.014c1.152,1.747,2.205,3.559,3.2,5.4a34.625,34.625,0,0,0,3.16,5.257c2.088,2.625,5.724,4.54,9.046,3.034a5.344,5.344,0,0,0,1.379-8.467,4.57,4.57,0,0,0-7.324,2.138,13.33,13.33,0,0,0-.022,5.15,32.579,32.579,0,0,0,14.856,23.919c1.063.664,2.009-1.037.949-1.7Z" transform="translate(-352.399 86.864)" fill="#333" opacity="0.09"/>
    <rect id="Rectangle_9707" data-name="Rectangle 9707" width="5.8" height="19.058" transform="translate(132.729 394.508)" fill="#333" opacity="0.09"/>
    <rect id="Rectangle_9708" data-name="Rectangle 9708" width="5.701" height="18.731" transform="translate(46.013 335.935) rotate(135)" fill="#333" opacity="0.09"/>
    <rect id="Rectangle_9709" data-name="Rectangle 9709" width="5.701" height="18.731" transform="translate(260.372 367.827) rotate(-135)" fill="#333" opacity="0.09"/>
    <rect id="Rectangle_9710" data-name="Rectangle 9710" width="5.701" height="18.731" transform="translate(85.165 588.235) rotate(-135)" fill="#ed771c" opacity="0.1"/>
  </g>
</svg>
