<svg id="vuesax_bold_tag" data-name="vuesax/bold/tag" xmlns="http://www.w3.org/2000/svg" width="17.976" height="17.976" viewBox="0 0 17.976 17.976">
  <g id="tag">
    <path id="Vector" d="M6.963,0A3.547,3.547,0,0,0,4.438,1.045L1.045,4.438A3.592,3.592,0,0,0,0,7.134l.18,3.745a2.886,2.886,0,0,0,2.764,2.749l3.745.18c.061,0,.122,0,.183,0a3.582,3.582,0,0,0,2.513-1.046l3.393-3.393a3.549,3.549,0,0,0,0-5.041L9.493,1.045A3.566,3.566,0,0,0,6.963,0ZM5.044,10.931A2.157,2.157,0,1,1,7.2,8.774,2.16,2.16,0,0,1,5.044,10.931Z" transform="translate(15.904 15.889) rotate(180)" fill="#36f19a"/>
    <path id="Vector-2" data-name="Vector" d="M0,0V17.976H17.976V0Z" fill="#36f19a" opacity="0"/>
  </g>
</svg>
