<svg id="vuesax_twotone_bag" data-name="vuesax/twotone/bag" xmlns="http://www.w3.org/2000/svg" width="24" height="24" viewBox="0 0 24 24">
  <g id="vuesax_twotone_bag-2" data-name="vuesax/twotone/bag">
    <g id="bag">
      <g id="Group_676" data-name="Group 676" transform="translate(5.189 2)">
        <path id="Vector" d="M3.62,0,0,3.63" fill="none" stroke="#ed771c" stroke-linecap="round" stroke-linejoin="round" stroke-miterlimit="10" stroke-width="1.5" stroke-dasharray="0 0"/>
        <path id="Vector-2" data-name="Vector" d="M0,0,3.62,3.63" transform="translate(10)" fill="none" stroke="#ed771c" stroke-linecap="round" stroke-linejoin="round" stroke-miterlimit="10" stroke-width="1.5" stroke-dasharray="0 0"/>
        <path id="Vector-3" data-name="Vector" d="M0,0V3.55" transform="translate(4.57 12)" fill="none" stroke="#ed771c" stroke-linecap="round" stroke-width="1.5" stroke-dasharray="0 0"/>
        <path id="Vector-4" data-name="Vector" d="M0,0V3.55" transform="translate(9.17 12)" fill="none" stroke="#ed771c" stroke-linecap="round" stroke-width="1.5" stroke-dasharray="0 0"/>
      </g>
      <path id="Vector-5" data-name="Vector" d="M0,0,1.41,8.64C1.73,10.58,2.5,12,5.36,12h6.03c3.11,0,3.57-1.36,3.93-3.24L17,0" transform="translate(3.5 10)" fill="none" stroke="#333" stroke-linecap="round" stroke-width="1.5" stroke-dasharray="0 0"/>
      <path id="Vector-6" data-name="Vector" d="M24,0V24H0V0Z" fill="none" opacity="0"/>
      <path id="Vector-7" data-name="Vector" d="M2.22,0H17.78C19.01,0,20,.15,20,2c0,2.15-.99,2-2.22,2H2.22C.99,4,0,4.15,0,2,0,.15.99,0,2.22,0Z" transform="translate(2 5.85)" fill="none" stroke="#292d32" stroke-width="1.5" stroke-dasharray="0 0"/>
    </g>
  </g>
</svg>
